<svg xmlns="http://www.w3.org/2000/svg" id="Group_435" width="95.477" height="42.218" data-name="Group 435" viewBox="0 0 50 42.218">
    <g id="Group_416" data-name="Group 416">
        <path id="Path_1481" d="M7.777 42.036l3.2-.966-3.207.968C2.578 43.572-.2 49.23 2.6 52.606l1.739 2.1-1.739-2.1c-2.785-3.376-.017-9.034 5.177-10.57z" fill="#ffc907" transform="translate(-1.491 -32.174)"/>
        <path id="Path_1482" d="M9.739 52.949a9.7 9.7 0 0 1-.072-1.191 8.052 8.052 0 0 1 .572-3.029 7.185 7.185 0 0 1 1.64-2.477 7.054 7.054 0 0 1 .935-.775 8.446 8.446 0 0 0-1.8-4.426l-3.214.97C2.608 43.557-.16 49.214 2.629 52.59l1.739 2.1c.137 0 .277.011.417.011a7.863 7.863 0 0 0 4.955-1.753z" fill="#ffc907" transform="translate(-1.516 -32.158)"/>
        <path id="Path_1483" d="M21.209 97.736a6.347 6.347 0 0 1-1.309-2.225 7.86 7.86 0 0 1-.374-1.631 7.863 7.863 0 0 1-4.955 1.757c-.14 0-.279 0-.417-.011l6.9 8.349a18.615 18.615 0 0 1 4.079-4.293 6.486 6.486 0 0 1-1.831-.471 6 6 0 0 1-2.093-1.475z" fill="#ed1d24" transform="translate(-11.299 -73.089)"/>
        <path id="Path_1484" d="M129.539 72.374c.014-.155.023-.309.023-.464a5.518 5.518 0 0 0-.248-1.592 4.606 4.606 0 0 0-.757-1.477 3.975 3.975 0 0 0-1.284-1.081 4.183 4.183 0 0 0-3.649 0 4 4 0 0 0-1.126.9c-.047.056-.1.11-.144.169a4.655 4.655 0 0 0-.759 1.484 5.513 5.513 0 0 0-.245 1.592 5.457 5.457 0 0 0 .245 1.608 4.878 4.878 0 0 0 .759 1.487 3.924 3.924 0 0 0 1.282 1.1l.041.018c.369.1.736.225 1.1.342a4.465 4.465 0 0 0 .687.056 3.8 3.8 0 0 0 1.824-.417 3.91 3.91 0 0 0 1.284-1.1 4.822 4.822 0 0 0 .757-1.484 5.559 5.559 0 0 0 .21-1.141z" fill="#ed1d24" transform="translate(-94.355 -52.527)"/>
        <path id="Path_1485" d="M80.264 3.711a8.678 8.678 0 0 0-.773-.595 9.194 9.194 0 0 0-.631-.392c-.119-.068-.239-.133-.363-.2s-.252-.126-.383-.185a8.945 8.945 0 0 0-.592-.241L77.219 2a8.945 8.945 0 0 0-1.209-.3l-.1-.018a9.234 9.234 0 0 0-4.108.282L54.257 7.256l-10.637 3.21a8.446 8.446 0 0 1 1.8 4.426 8.077 8.077 0 0 1 1.662-.881 9.137 9.137 0 0 1 3.378-.6 18.383 18.383 0 0 1 3.48.309 20.27 20.27 0 0 1 2.6.649v10.284a17.864 17.864 0 0 1 1.743-.131 7.813 7.813 0 0 1-.268-.586 8.07 8.07 0 0 1 0-5.968 7.592 7.592 0 0 1 1.592-2.457l.079-.072a7.522 7.522 0 0 1 2.378-1.6 8.417 8.417 0 0 1 6.338 0 7.511 7.511 0 0 1 2.457 1.669 7.592 7.592 0 0 1 1.592 2.457 7.822 7.822 0 0 1 .572 2.984 8.183 8.183 0 0 1-.11 1.336 7.616 7.616 0 0 1-.462 1.648 7.784 7.784 0 0 1-1.592 2.477A7.247 7.247 0 0 1 69 27.81 18.765 18.765 0 0 1 70.509 29l5.108-6.43 3.412-4.279.171-.225a.063.063 0 0 0 0-.02l2.342-3.252.392-.543a7.978 7.978 0 0 0-1.67-10.54z" fill="#ed1d24" transform="translate(-34.132 -1.569)"/>
        <path id="Intersection_2" d="M23.667 19.383A7.825 7.825 0 0 0 23.1 16.4a7.6 7.6 0 0 0-1.6-2.459 7.514 7.514 0 0 0-2.457-1.669 8.419 8.419 0 0 0-6.338 0 7.525 7.525 0 0 0-2.378 1.6l-.079.072a7.593 7.593 0 0 0-1.59 2.456l-.012.031q-.749-.472-1.463-1V12.8a20.322 20.322 0 0 0-2.6-.649q-.6-.112-1.207-.183A25.326 25.326 0 0 1 0 7.165l.712-.215L4.9 5.687 8.963 4.46 22.444.394a9.234 9.234 0 0 1 4.108-.281l.1.018a8.952 8.952 0 0 1 1.209.3l.3.106a8.523 8.523 0 0 1 .975.426 10.278 10.278 0 0 1 .994.592 8.64 8.64 0 0 1 .772.595 8.217 8.217 0 0 1 2.938 6.9 8.052 8.052 0 0 1-1.267 3.641l-.392.543-2.341 3.239a.068.068 0 0 1 0 .02l-.171.225-2.032 2.548a23.688 23.688 0 0 1-3.993.734q.023-.31.023-.617z" fill="#045fad" data-name="Intersection 2" transform="translate(15.229)"/>
        <path id="Path_1486" d="M58.676 68.135a4.757 4.757 0 0 0-1.948.372 4.372 4.372 0 0 0-1.421.989 4.016 4.016 0 0 0-.881 1.437 5.054 5.054 0 0 0-.3 1.716 4.642 4.642 0 0 0 .836 2.813 3.1 3.1 0 0 0 2.689 1.144 3.848 3.848 0 0 0 2.52-.712 2.768 2.768 0 0 0 .849-2.252v-5.2a5.18 5.18 0 0 0-.9-.225 9.733 9.733 0 0 0-1.444-.082z" fill="#ed1d24" transform="translate(-42.274 -53.142)"/>
        <path id="Path_1487" d="M65.408 136.594l-.05.061a4.777 4.777 0 0 1-2.838 1.41 5.068 5.068 0 0 1-.615.043 5.737 5.737 0 0 1-4.73-1.937l-6.365-7.7h-.03l6.374 7.716a5.751 5.751 0 0 0 4.73 1.937 5.132 5.132 0 0 0 .615-.045 4.772 4.772 0 0 0 2.838-1.408l.047-.061c.144-.155.493-.5.617-.676l10.054-12.6-10.03 12.587c-.125.179-.475.518-.617.673z" fill="#1cbff1" transform="translate(-39.679 -95.914)"/>
        <path id="Path_1488" d="M131.63 106.31a3.4 3.4 0 0 0 1.1.342c-.364-.126-.73-.241-1.1-.342z" fill="#ed1d24" transform="translate(-102.32 -82.72)"/>
        <path id="Path_1489" d="M44.741 138.7a.04.04 0 0 1-.011.016v-.016z" fill="#1cbff1" transform="translate(-34.992 -107.815)"/>
        <path id="Path_1490" d="M74.64 106.764c-.194.1-.392.2-.6.288a8.443 8.443 0 0 1-6.338 0 7.432 7.432 0 0 1-2.457-1.685 7.7 7.7 0 0 1-1.324-1.887c-.588.016-1.171.059-1.743.131v3.815a6.516 6.516 0 0 1-.527 2.7 5.6 5.6 0 0 1-1.453 1.977 6.306 6.306 0 0 1-2.194 1.221 8.734 8.734 0 0 1-2.752.405 16.8 16.8 0 0 1-2.027-.108 11.973 11.973 0 0 1-1.577-.3 7.951 7.951 0 0 1-.741-.239l6.354 7.689a5.763 5.763 0 0 0 4.73 1.937 5.068 5.068 0 0 0 .615-.043 4.777 4.777 0 0 0 2.838-1.41l.05-.061c.142-.155.493-.5.617-.676l10.043-12.576a18.76 18.76 0 0 0-1.516-1.187z" fill="#1cbff1" transform="translate(-39.78 -80.527)"/>
        <path id="Path_1491" d="M55.457 118.564a3.423 3.423 0 0 0 2.381-.865 3.089 3.089 0 0 0 .957-2.412v-1.577a6.757 6.757 0 0 1-1.622 1 5.873 5.873 0 0 1-2.336.387 8.376 8.376 0 0 1-.966-.056l-2.621 2.439a5.788 5.788 0 0 0 1.842.82 9.382 9.382 0 0 0 2.365.264z" fill="#1cbff1" transform="translate(-40.043 -88.453)"/>
        <path id="Path_1492" d="M44.8 138.72v.016l1.351 1.644h.032z" fill="#fff" transform="translate(-35.046 -107.83)"/>
        <path id="Path_1493" d="M51.25 122.075a18 18 0 0 1 2.622-2.435" fill="#1cbff1" data-name="Path 1493" transform="translate(-40.043 -93.048)"/>
        <path id="Path_1495" d="M49.379 54.446a18.383 18.383 0 0 0-3.489-.309 9.137 9.137 0 0 0-3.378.6 8.077 8.077 0 0 0-1.646.881 7.054 7.054 0 0 0-.935.775 7.185 7.185 0 0 0-1.64 2.477 8.052 8.052 0 0 0-.572 3.029 9.7 9.7 0 0 0 .063 1.187 7.86 7.86 0 0 0 .376 1.637 6.347 6.347 0 0 0 1.311 2.218 6 6 0 0 0 2.088 1.468 6.486 6.486 0 0 0 1.831.471 8.379 8.379 0 0 0 .966.056 5.874 5.874 0 0 0 2.336-.387 6.757 6.757 0 0 0 1.622-1v1.577a3.089 3.089 0 0 1-.957 2.412 3.423 3.423 0 0 1-2.381.865 9.381 9.381 0 0 1-2.365-.264 5.788 5.788 0 0 1-1.842-.82l-1.454 1.861 1.378 1.671a7.165 7.165 0 0 0 .741.239 11.978 11.978 0 0 0 1.577.3 16.8 16.8 0 0 0 2.027.108 8.734 8.734 0 0 0 2.752-.419 6.306 6.306 0 0 0 2.194-1.221 5.594 5.594 0 0 0 1.453-1.977 6.516 6.516 0 0 0 .536-2.68v-14.1a20.271 20.271 0 0 0-2.592-.655zm-7.126 10.171a4.642 4.642 0 0 1-.836-2.813 5.054 5.054 0 0 1 .3-1.716 4.016 4.016 0 0 1 .881-1.437 4.372 4.372 0 0 1 1.421-.989 4.757 4.757 0 0 1 1.948-.372 9.735 9.735 0 0 1 1.453.077 5.18 5.18 0 0 1 .9.225v5.2a2.765 2.765 0 0 1-.849 2.252 3.894 3.894 0 0 1-2.52.712 3.1 3.1 0 0 1-2.698-1.139z" fill="#fff" transform="translate(-29.559 -42.297)"/>
        <path id="Path_1496" d="M119.969 58.056a7.592 7.592 0 0 0-1.592-2.457 7.512 7.512 0 0 0-2.457-1.669 8.417 8.417 0 0 0-6.338 0 7.522 7.522 0 0 0-2.378 1.6l-.079.072a7.592 7.592 0 0 0-1.592 2.457 8.07 8.07 0 0 0 0 5.968c.081.2.173.4.268.586a7.7 7.7 0 0 0 1.324 1.887 7.432 7.432 0 0 0 2.457 1.685 8.444 8.444 0 0 0 6.338 0c.2-.088.4-.185.6-.288a7.248 7.248 0 0 0 1.86-1.4 7.784 7.784 0 0 0 1.592-2.477 7.613 7.613 0 0 0 .462-1.646 8.189 8.189 0 0 0 .11-1.338 7.822 7.822 0 0 0-.572-2.98zm-3.354 4.592a4.822 4.822 0 0 1-.757 1.484 3.91 3.91 0 0 1-1.284 1.1 3.8 3.8 0 0 1-1.824.417 4.465 4.465 0 0 1-.687-.056 3.4 3.4 0 0 1-1.1-.342l-.041-.018a3.923 3.923 0 0 1-1.282-1.1 4.878 4.878 0 0 1-.759-1.484 5.458 5.458 0 0 1-.245-1.608 5.513 5.513 0 0 1 .245-1.592 4.655 4.655 0 0 1 .759-1.477c.045-.059.1-.113.144-.169a4 4 0 0 1 1.126-.9 4.182 4.182 0 0 1 3.649 0 3.975 3.975 0 0 1 1.284 1.081 4.606 4.606 0 0 1 .757 1.484 5.518 5.518 0 0 1 .248 1.592 3.2 3.2 0 0 1-.023.464 5.56 5.56 0 0 1-.214 1.126z" fill="#fff" transform="translate(-81.656 -41.657)"/>
    </g>
</svg>
